<?xml version="1.0" standalone="no"?>
<!DOCTYPE svg PUBLIC "-//W3C//DTD SVG 20010904//EN"
 "http://www.w3.org/TR/2001/REC-SVG-20010904/DTD/svg10.dtd">
<svg version="1.0" xmlns="http://www.w3.org/2000/svg"
 width="3000.000000pt" height="3000.000000pt" viewBox="0 0 3000.000000 3000.000000"
 preserveAspectRatio="xMidYMid meet">
<metadata>
Created by potrace 1.11, written by Peter Selinger 2001-2013
</metadata>
<g transform="translate(0.000000,3000.000000) scale(0.100000,-0.100000)"
fill="#000000" stroke="none">
<path d="M13548 25815 c-61 -16 36 35 -988 -522 -272 -148 -1998 -1086 -3835
-2084 -3169 -1721 -3343 -1817 -3400 -1874 -180 -180 -181 -452 -1 -630 98
-97 218 -142 350 -132 39 3 91 13 116 23 25 10 1692 913 3705 2007 2013 1094
3831 2082 4040 2195 334 182 387 214 441 267 179 178 179 452 0 630 -117 116
-279 161 -428 120z"/>
<path d="M14897 25819 c-158 -37 -300 -181 -336 -340 -7 -29 -11 -1215 -11
-3526 l0 -3483 -3657 0 -3658 0 -1150 1149 c-907 905 -1160 1153 -1198 1171
-189 88 -381 57 -523 -84 -153 -153 -177 -395 -56 -568 17 -24 1119 -1130
2449 -2459 1930 -1929 2428 -2421 2466 -2439 189 -88 381 -57 523 84 141 142
172 334 84 523 -18 38 -205 231 -859 885 l-836 838 3208 0 3207 0 0 -2570 0
-2570 -3202 0 -3203 0 831 833 c650 650 836 842 854 880 88 188 57 381 -84
523 -153 153 -395 177 -568 56 -24 -17 -1130 -1119 -2459 -2449 -1929 -1930
-2421 -2428 -2439 -2466 -88 -189 -57 -381 84 -523 142 -141 334 -172 523 -84
38 18 292 266 1203 1176 l1155 1154 3653 0 3652 0 0 -2842 c0 -1881 4 -2858
11 -2887 37 -162 178 -303 340 -340 235 -55 484 103 538 340 7 29 11 1006 11
2887 l0 2842 3647 0 3648 0 1155 -1154 c911 -910 1165 -1158 1203 -1176 189
-88 381 -57 523 84 151 151 176 391 60 562 -35 52 -4819 4837 -4874 4876 -173
121 -415 97 -568 -56 -141 -142 -172 -335 -84 -523 18 -38 204 -230 854 -880
l831 -833 -3198 0 -3197 0 0 2570 0 2570 3202 0 3203 0 -836 -837 c-654 -655
-841 -848 -859 -886 -88 -189 -57 -381 84 -523 153 -153 395 -177 568 -56 24
17 1130 1119 2459 2449 1929 1930 2421 2428 2439 2466 88 189 57 381 -84 523
-142 141 -334 172 -523 84 -38 -18 -291 -266 -1198 -1171 l-1150 -1149 -3653
0 -3652 0 0 3483 c0 2311 -4 3497 -11 3526 -37 162 -178 303 -340 340 -53 13
-150 12 -202 0z"/>
</g>
</svg>
